<?xml version="1.0" encoding="utf-8"?>
<!-- Generator: Adobe Illustrator 16.0.0, SVG Export Plug-In . SVG Version: 6.00 Build 0)  -->
<!DOCTYPE svg PUBLIC "-//W3C//DTD SVG 1.1//EN" "http://www.w3.org/Graphics/SVG/1.1/DTD/svg11.dtd">
<svg version="1.1" id="Layer_1" xmlns="http://www.w3.org/2000/svg" xmlns:xlink="http://www.w3.org/1999/xlink" x="0px" y="0px"
	 width="89px" height="49px" viewBox="0 0 89 49" enable-background="new 0 0 89 49" xml:space="preserve">
<g>
	<path fill="#FFFFFF" d="M18.5,5C10.492,5,4,11.492,4,19.5S10.492,34,18.5,34h39.544l0.214,7.249
		c0.023,0.822,0.975,1.266,1.62,0.755L69.977,34H70.5C78.508,34,85,27.508,85,19.5S78.508,5,70.5,5H18.5z"/>
	<defs>
		<filter id="Adobe_OpacityMaskFilter" filterUnits="userSpaceOnUse" x="3.8" y="4.8" width="81.4" height="37.622">
			<feColorMatrix  type="matrix" values="1 0 0 0 0  0 1 0 0 0  0 0 1 0 0  0 0 0 1 0"/>
		</filter>
	</defs>
	<mask maskUnits="userSpaceOnUse" x="3.8" y="4.8" width="81.4" height="37.622" id="path-1-inside-1_153_2214">
		<path fill="#FFFFFF" filter="url(#Adobe_OpacityMaskFilter)" d="M18.5,5C10.492,5,4,11.492,4,19.5S10.492,34,18.5,34h39.544
			l0.214,7.249c0.023,0.822,0.975,1.266,1.62,0.755L69.977,34H70.5C78.508,34,85,27.508,85,19.5S78.508,5,70.5,5H18.5z"/>
	</mask>
	<path mask="url(#path-1-inside-1_153_2214)" fill="#F34579" d="M58.044,34l0.2-0.006L58.238,33.8h-0.194V34z M58.258,41.249
		l0.199-0.006L58.258,41.249z M59.878,42.004l-0.124-0.157L59.878,42.004z M69.977,34v-0.2h-0.07l-0.055,0.044L69.977,34z M4.2,19.5
		c0-7.897,6.402-14.3,14.3-14.3V4.8c-8.119,0-14.7,6.582-14.7,14.7H4.2z M18.5,33.8c-7.898,0-14.3-6.402-14.3-14.3H3.8
		c0,8.119,6.582,14.7,14.7,14.7V33.8z M58.044,33.8H18.5v0.4h39.544V33.8z M58.457,41.243l-0.213-7.249l-0.4,0.012l0.213,7.249
		L58.457,41.243z M59.754,41.847c-0.516,0.409-1.277,0.055-1.297-0.604l-0.4,0.012c0.029,0.987,1.172,1.519,1.945,0.905
		L59.754,41.847z M69.852,33.844l-10.098,8.003l0.248,0.313l10.099-8.004L69.852,33.844z M70.5,33.8h-0.523v0.4H70.5V33.8z
		 M84.8,19.5c0,7.897-6.401,14.3-14.3,14.3v0.4c8.119,0,14.7-6.581,14.7-14.7H84.8z M70.5,5.2c7.898,0,14.3,6.402,14.3,14.3h0.4
		c0-8.119-6.581-14.7-14.7-14.7V5.2z M18.5,5.2h52V4.8h-52V5.2z"/>
</g>
<path fill="#F34579" d="M26.12,15.624V24h-1.68v-5.448L22.196,24h-1.272l-2.256-5.448V24h-1.68v-8.376h1.908l2.664,6.228
	l2.664-6.228H26.12z M32.557,22.404h-3.336L28.669,24h-1.764l3.012-8.388h1.956L34.885,24h-1.776L32.557,22.404z M32.101,21.06
	l-1.212-3.504l-1.212,3.504H32.101z M41.351,15.624v1.356h-2.232V24h-1.68v-7.02h-2.232v-1.356H41.351z M41.809,19.8
	c0-0.824,0.184-1.56,0.552-2.208c0.376-0.656,0.884-1.164,1.524-1.524c0.648-0.368,1.372-0.552,2.172-0.552
	c0.936,0,1.756,0.24,2.46,0.72s1.196,1.144,1.476,1.992h-1.932c-0.191-0.4-0.464-0.7-0.816-0.9c-0.344-0.2-0.744-0.3-1.199-0.3
	c-0.488,0-0.924,0.116-1.308,0.348c-0.376,0.224-0.672,0.544-0.888,0.96c-0.208,0.416-0.312,0.904-0.312,1.464
	c0,0.552,0.104,1.04,0.312,1.464c0.216,0.416,0.512,0.74,0.888,0.972c0.384,0.224,0.82,0.336,1.308,0.336
	c0.455,0,0.855-0.1,1.199-0.3c0.353-0.208,0.625-0.512,0.816-0.912h1.932c-0.279,0.856-0.771,1.524-1.476,2.004
	c-0.696,0.472-1.517,0.708-2.46,0.708c-0.8,0-1.524-0.18-2.172-0.54c-0.64-0.368-1.148-0.876-1.524-1.524
	C41.993,21.36,41.809,20.624,41.809,19.8z M58.016,15.624V24h-1.68v-3.564h-3.588V24h-1.68v-8.376h1.68v3.444h3.588v-3.444H58.016z
	 M68.484,16.908c-0.156,0.384-0.349,0.816-0.528,1.14h-2.532l0.348-0.072c-0.084-0.288-0.299-0.72-0.516-1.068H68.484z
	 M72.096,22.164v-0.936h-4.729v-0.732h3.685v-0.84h-3.685v-0.72h4.248v-0.888h-2.543c0.203-0.336,0.443-0.732,0.672-1.14h2.316
	v-0.936h-1.729c0.313-0.444,0.672-1.044,0.996-1.632l-1.152-0.288c-0.18,0.54-0.552,1.296-0.84,1.776l0.456,0.144h-1.296V13.92
	h-1.057v2.052h-1.188V13.92h-1.044v2.052h-1.32l0.612-0.228c-0.168-0.468-0.588-1.2-0.96-1.716l-0.972,0.324
	c0.336,0.492,0.695,1.152,0.875,1.62h-1.775v0.936h2.725l-0.289,0.048c0.192,0.324,0.396,0.756,0.504,1.092h-2.459v0.888h4.127v0.72
	h-3.539v0.84h3.539v0.732h-4.656v0.936h3.709c-1.057,0.744-2.616,1.368-4.045,1.668c0.252,0.24,0.564,0.66,0.732,0.948
	c1.5-0.42,3.12-1.2,4.26-2.16v2.328h1.092v-2.412c1.129,1.032,2.736,1.836,4.297,2.256c0.168-0.3,0.492-0.756,0.744-0.996
	c-1.465-0.276-3.012-0.888-4.068-1.632H72.096z"/>
<path fill="#F34579" d="M77.5,0L77.5,0C81.643,0,85,3.358,85,7.5l0,0c0,4.142-3.357,7.5-7.5,7.5l0,0c-4.143,0-7.5-3.358-7.5-7.5l0,0
	C70,3.358,73.357,0,77.5,0z"/>
<path fill="#FFFFFF" d="M74.938,10.588c1.439,0,2.274-0.826,2.274-2.839V4.412h-1.129v3.444c0,1.26-0.445,1.685-1.146,1.685
	c-0.684,0-1.113-0.425-1.113-1.685V4.412h-1.177V7.75C72.647,9.762,73.506,10.588,74.938,10.588z"/>
<path fill="#FFFFFF" d="M78.115,10.474h1.176V8.322h0.788c1.265,0,2.274-0.622,2.274-2.004c0-1.432-1.002-1.906-2.307-1.906h-1.932
	V10.474z M79.291,7.365V5.377h0.668c0.813,0,1.241,0.237,1.241,0.941c0,0.695-0.39,1.047-1.2,1.047H79.291z"/>
</svg>
